<?xml version="1.0"?>
<svg width="512.001" height="512.001" xmlns="http://www.w3.org/2000/svg" xmlns:svg="http://www.w3.org/2000/svg" version="1.1" xml:space="preserve">
 <g class="layer">
  <title>Layer 1</title>
  <path d="m106.04,361.04l149.96,149.96l149.96,-149.96c82.82,-82.82 82.82,-217.1 0,-299.92l0,0c-82.82,-82.83 -217.1,-82.83 -299.92,0l0,0c-82.82,82.82 -82.82,217.1 0,299.92z" fill="#F95428" id="svg_1" transform="rotate(180 256 256)"/>
  <circle cx="256" cy="298.08" fill="#E6E6E6" id="svg_2" r="149.96"/>
  <path d="m156.93,298.08c0,-82.82 44.36,-149.96 99.07,-149.96c-82.82,0 -149.96,67.14 -149.96,149.96s67.14,149.96 149.96,149.96c-54.71,0 -99.07,-67.14 -99.07,-149.96z" fill="#CCCCCC" id="svg_3"/>
  <path d="m240.99,190.83c0,91.75 -64.93,76.23 -63.52,138.34c0.8,35.07 30.31,55.14 63.44,59.05c-7.94,-9.18 -42.96,-54.87 11.38,-91.52c1.74,35.32 31.05,40.94 31.05,66.35c0,10.7 -2.25,17.89 -4.86,22.63c27.34,-7.15 50.51,-26.2 54.27,-57.92c9.88,-83.29 -91.76,-136.94 -91.76,-136.94l0,0.01z" fill="#F95428" id="svg_4"/>
 </g>
</svg>